<svg width="56" height="56" version="1.1" viewBox="0 0 85 120" xmlns="http://www.w3.org/2000/svg">
 <rect width="85" height="120" fill="#002856" stroke-width="2.5452"/>
 <path d="m56.959 33.089v15.419l-8.6143 7.5938 8.1175 7.3444 8.612-7.5939v-15.437zm-20.302 23.013-8.6132-7.5944v-15.419l-8.1181 7.3271v15.437l8.6143 7.5939zm19.123-8.6393v-15.437l-13.236-11.948v-0.078232l-0.043 0.03912-0.0425-0.03912v0.07823l-13.237 11.948v15.437l13.28-11.987zm-22.829 27.75c-2.8415 0-5.047 2.1608-5.047 5.1508 0 2.9906 2.2055 5.1515 5.047 5.1515 2.8416 0 5.0471-2.1609 5.0471-5.1515 0-2.99-2.2055-5.1508-5.0471-5.1508zm0 8.8343c-1.7724 0-3.2067-1.4135-3.2067-3.6835 0-2.2693 1.4343-3.6828 3.2067-3.6828 1.7725 0 3.2068 1.4135 3.2068 3.6828 6e-4 2.27-1.4337 3.6835-3.2068 3.6835zm21.934-8.5356v9.7043h1.7052v-9.7043zm-14.275 2.4874c0-0.7207 0.5954-1.3187 1.9619-1.3187 1.1228 0 2.0432 0.4896 2.0432 1.8622h1.786c-0.1487-2.555-2.0297-3.3296-3.8971-3.3296s-3.6806 0.8694-3.6806 2.9627c0 3.8464 5.8991 1.9843 5.8991 4.3632 0 1.1143-1.2178 1.4811-2.1241 1.5084-1.2314-0.0273-2.2598-0.6253-2.2598-2.0115h-1.786c0.0407 2.4465 1.6916 3.4795 3.9508 3.4795 2.1925 0 4.0051-1.033 4.0051-3.1939 1e-3 -3.9554-5.8985-2.1751-5.8985-4.3223zm12.651 1.4402h-3.8835v-2.5141h4.519v-1.4135h-6.2236v9.7043h1.7046v-4.3632h3.8835zm-12.917 13.045c0-0.7207 0.5954-1.3187 1.9619-1.3187 1.1228 0 2.0432 0.4895 2.0432 1.8622h1.786c-0.1487-2.555-2.0297-3.3296-3.8971-3.3296s-3.68 0.8694-3.68 2.9627c0 3.8464 5.8991 1.9843 5.8991 4.3632 0 1.1142-1.2178 1.4811-2.1247 1.5084-1.2314-0.0273-2.2592-0.6253-2.2592-2.0116h-1.786c0.0407 2.4466 1.6916 3.4796 3.9508 3.4796 2.1919 0 4.0051-1.033 4.0051-3.1939 6e-4 -3.9554-5.8991-2.1757-5.8991-4.3223zm10.69 7.2169h1.7045v-4.3632h3.8836v-1.4135h-3.8836v-2.5141h4.5196v-1.4135h-6.2241zm-15.479-5.206v-0.0267c0.4868-0.0681 1.6916-0.3805 1.6916-2.2017 0-1.6583-1.1234-2.2699-2.9094-2.2699h-4.208v9.7043h4.8576c1.6916 0 2.8552-1.1012 2.8552-2.6231 0-1.5499-0.8933-2.4472-2.287-2.5829zm-3.7206-3.0848h2.2326c1.0827 0 1.4886 0.3941 1.4751 1.2232-0.0136 0.7753-0.514 1.2369-1.5966 1.2369h-2.1111zm2.2999 6.8773h-2.2999v-3.0036h2.4627c1.0963 0 1.7052 0.5162 1.7052 1.5083-6e-4 0.9382-0.4874 1.4953-1.868 1.4953zm13.355 1.4135h1.7046v-9.7043h-1.7046zm-27.333-0.0184h0.52276v-24.181h-0.52276zm44.124 0h0.5222v-24.181h-0.5222z" fill="#fff"/>
</svg>
