<?xml version="1.0" encoding="utf-8"?>
<!-- Generator: Adobe Illustrator 16.0.0, SVG Export Plug-In . SVG Version: 6.00 Build 0)  -->
<!DOCTYPE svg PUBLIC "-//W3C//DTD SVG 1.1//EN" "http://www.w3.org/Graphics/SVG/1.1/DTD/svg11.dtd">
<svg version="1.1" id="Layer_1" xmlns="http://www.w3.org/2000/svg" xmlns:xlink="http://www.w3.org/1999/xlink" x="0px" y="0px"
	 width="378px" height="378px" viewBox="-61 -44.5 378 378" enable-background="new -61 -44.5 378 378" xml:space="preserve">
<g>
	<path fill="#1D5080" d="M-6.852,135.222v91.949l51.188,45.328l48.602-43.698l-51.201-44.668V91.847L-6.852,135.222"/>
	<path fill="#1D5080" d="M-6.852,135.222v91.949l51.188,45.328l48.602-43.698l-51.201-44.668V91.847L-6.852,135.222"/>
	<path fill="#1D5080" d="M48.593,177.276V85.65l79.569-72.067l79.557,71.744v92.286l-79.557-71.421L48.593,177.276"/>
	<path fill="#1D5080" d="M48.593,177.276V85.65l79.569-72.067l79.557,71.744v92.286l-79.557-71.421L48.593,177.276"/>
	<path fill="#1D5080" d="M214.575,183.81V92.507l48.575,43.038v91.949l-51.188,44.682l-48.588-43.038L214.575,183.81"/>
	<path fill="#1D5080" d="M214.575,183.81V92.507l48.575,43.038v91.949l-51.188,44.682l-48.588-43.038L214.575,183.81"/>
</g>
</svg>
